<?xml version="1.0" standalone="no"?>
<!DOCTYPE svg PUBLIC "-//W3C//DTD SVG 1.1//EN" "http://www.w3.org/Graphics/SVG/1.1/DTD/svg11.dtd" >
<!--
2013-9-30: Created.
-->
<svg>
<metadata>
Created by iconfont
</metadata>
<defs>

<font id="iconfont" horiz-adv-x="1024" >
  <font-face
    font-family="iconfont"
    font-weight="500"
    font-stretch="normal"
    units-per-em="1024"
    ascent="896"
    descent="-128"
  />
    <missing-glyph />
    
    <glyph glyph-name="icon_" unicode="&#58897;" d="M979.167 723.265h-415.31L749.339 402H497.197V578.429H44.833v-367.503h452.364V366H749.34L563.857 44.735h415.31L783.293 384l195.874 339.265zM80.833 246.926V542.429h219.434l1.861-295.503H80.833z m380.364 0H338.128L337.378 366h123.819v-119.074z m0 155.074H337.151l-0.885 140.429h124.931V402z m165.014 285.265h290.604l-145.303-251.67-145.301 251.67z m133.52-303.266l-0.721-1.247v2.494l0.721-1.247z m157.082-303.264H626.211l145.302 251.669 145.3-251.669zM626.211 80.735h290.602l-145.3 251.669z"  horiz-adv-x="1024" />

    
    <glyph glyph-name="icon_1" unicode="&#58898;" d="M591.301 77.354h300.256L741.429 337.383zM891.557 690.646H591.301l150.128-260.028zM953.91 726.646H528.947l187.196-324.233H452.905c-9.297 97.182-91.386 173.44-190.963 173.44C156.154 575.853 70.09 489.787 70.09 384s86.064-191.852 191.851-191.852c99.577 0 181.667 76.259 190.964 173.44h263.238L528.947 41.354H953.91L756.083 383.999 953.91 726.646z m-62.353-649.292H591.301l150.128 260.028 150.128-260.028z m0 613.292L741.429 430.618 591.301 690.646h300.256zM261.941 228.148c-85.937 0-155.852 69.915-155.852 155.852s69.915 155.853 155.852 155.853c85.938 0 155.852-69.916 155.852-155.853s-69.914-155.852-155.852-155.852zM262.513 322.486h-0.858l-71.243 163.659h-36.911v-204.288h31.187V427.776h1.145l62.659-145.919h26.895l62.66 145.919h1.144v-145.919h31.187V486.145H333.47z"  horiz-adv-x="1024" />

    
    <glyph glyph-name="icon_2" unicode="&#58899;" d="M132.443 77.354h300.256L282.571 337.382zM432.699 690.645H132.443l150.128-260.028zM762.059 575.852c-99.576 0-181.667-76.259-190.964-173.44H307.856l187.197 324.233H70.09l197.826-342.646L70.09 41.355h424.962L307.855 365.588h263.239c9.297-97.182 91.386-173.44 190.963-173.44 105.788 0 191.853 86.064 191.853 191.852s-86.063 191.852-191.851 191.852zM132.443 77.354l150.128 260.028 150.128-260.028H132.443z m0 613.291h300.256L282.571 430.617 132.443 690.645z m629.616-462.498c-85.938 0-155.852 69.915-155.852 155.852s69.914 155.853 155.852 155.853 155.853-69.916 155.853-155.853-69.916-155.852-155.853-155.852zM833.586 486.144l-71.243-163.659h-0.858l-70.957 163.659H653.62v-204.288h31.187V427.775h1.144l62.66-145.919h26.895l62.659 145.919h1.145v-145.92h31.184V486.144z"  horiz-adv-x="1024" />

    
    <glyph glyph-name="icon_3" unicode="&#58900;" d="M818.645 4.443V304.699L558.617 154.571zM854.645 367.052L530.411 179.855v263.24c97.182 9.296 173.44 91.386 173.44 190.963C703.852 739.846 617.787 825.91 512 825.91s-191.852-86.063-191.852-191.851c0-99.577 76.259-181.667 173.439-190.964v-263.238L169.355 367.053V-57.91l342.644 197.827L854.645-57.91V367.052z m-649.29-62.353l260.026-150.128-260.026-150.128V304.699z m613.29-300.256L558.617 154.571l260.027 150.128v-300.256zM356.148 634.059c0 85.937 69.914 155.852 155.852 155.852s155.852-69.915 155.852-155.852c0-85.938-69.914-155.852-155.852-155.852s-155.852 69.914-155.852 155.852zM465.382 154.571L205.355 304.699v-300.256zM588.105 677.834h1.146v-145.919h31.184V736.202h-36.908l-71.243-163.658h-0.858l-70.957 163.658h-36.908v-204.287h31.187V677.834h1.144l62.66-145.919h26.895z"  horiz-adv-x="1024" />

    
    <glyph glyph-name="icon_4" unicode="&#58901;" d="M794.457 77.354L644.329 337.381 494.201 77.354zM794.457 690.645H494.201l150.128-260.029zM856.812 41.355L658.984 383.999 856.81 726.645H431.848L619.8 401.102H354.342v-36.823h263.946L431.849 41.355h424.963z m-362.611 649.29h300.256L644.329 430.616 494.201 690.645z m150.128-353.264l150.128-260.027H494.201l150.128 260.027zM167.188 384.157c-0.002-95.691 42.723-149.49 122.164-149.49h64.966V535.701H287.94c-78.028 0-120.752-56.264-120.752-151.544z m154.294 120.332v-239.021h-29.307c-61.082 0-91.093 42.302-91.093 118.689 0 75.978 30.011 120.332 91.093 120.332h29.307z"  horiz-adv-x="1024" />

    
    <glyph glyph-name="icon_5" unicode="&#58902;" d="M205.354 101.544l260.027 150.128L205.354 401.8zM818.646 101.544V401.8l-260.03-150.128zM169.354 39.187L512 237.015l342.647-197.824V464.153L529.102 276.201l0.001 265.458H492.28v-263.946L169.354 464.152v-424.965zM818.646 401.8v-300.256l-260.03 150.128L818.646 401.8zM465.381 251.672L205.354 101.544V401.8l260.027-150.128zM512.157 728.812c-95.691 0.002-149.49-42.724-149.49-122.164v-64.967h301.034l0.001 66.379c0 78.029-56.264 120.752-151.545 120.752zM632.49 574.519H393.468v29.309c0 61.082 42.304 91.093 118.689 91.093 75.979 0 120.333-30.011 120.333-91.093v-29.309z"  horiz-adv-x="1024" />

    
    <glyph glyph-name="icon_6" unicode="&#58903;" d="M113.897 110.318l333.584 150.068-333.584 150.067zM910.117 110.318l0.002 300.134-333.461-150.066zM954 472.927L530.027 282.128l-2.441 3.196-16.807 21.999-16.809-22.001-1.775-2.324L70 472.928v-425.084l369.552 166.247-190.463-249.303 523.38-0.001-191.813 251.071 373.342-168.015 0.002 425.084z m-43.883-362.609L576.658 260.386l333.461 150.066-0.002-300.134zM325.948-0.483l184.831 241.932 184.833-241.933-369.664 0.001zM113.897 110.318V410.453l333.584-150.067-333.584-150.068zM527.586 285.324V459.835c88.162 7.299 157.676 81.374 157.676 171.389 0 94.835-77.154 171.989-171.99 171.989-94.835 0-171.989-77.154-171.989-171.989 0-88.311 66.906-161.276 152.688-170.9l-0.001-175.001 16.809 22.001 16.807-22z m-154.03 345.9c0 77.04 62.676 139.716 139.716 139.716 77.041 0 139.717-62.676 139.717-139.716s-62.676-139.717-139.717-139.717c-77.04 0-139.716 62.677-139.716 139.717zM581.5 670.467h1.025v-130.812h27.957V722.792h-33.086l-63.611-146.715h-0.769l-63.867 146.715h-33.088v-183.137h27.958V670.467h1.025l56.173-130.812h24.111zM325.948-0.483l369.663-0.001-184.832 241.932z"  horiz-adv-x="1024" />

    
    <glyph glyph-name="icon_7" unicode="&#58908;" d="M580.842 741.592v-340.589H352.695v-1.814c-7.692 83.822-78.381 149.693-164.177 149.693-90.917 0-164.883-73.965-164.883-164.881 0-90.917 73.966-164.882 164.883-164.882 85.796 0 156.485 65.871 164.177 149.694v-1.815h228.146v-340.59h419.523V741.592H580.842zM188.518 245.773C112.3 245.773 50.291 307.781 50.291 384c0 76.218 62.008 138.225 138.227 138.225S326.745 460.218 326.745 384c0-76.219-62.009-138.227-138.227-138.227z m760.628 465.766L788.811 410.892 628.476 711.539h320.67z m-338.25-16.976l164.599-308.641-164.599-308.641V694.563z m15.529-638.102l162.388 304.492 162.386-304.492H626.425z m343.886 14.1L802.127 385.922l168.184 315.363v-630.724zM196.106 371.857c-2.291-6.455-4.513-14.095-6.664-22.908h-0.729c-1.041 7.082-3.02 14.646-5.935 22.698L148 469.112H98.02V307.82h31.03v91.214c0 13.604-0.453 27.177-1.354 40.713h0.938c2.429-11.87 4.129-19.125 5.102-21.762l40.297-110.166h27.385l39.776 111.207c1.25 3.47 2.916 10.376 4.998 20.721h0.833c-0.903-13.676-1.354-25.026-1.354-34.049v-97.878h33.945V469.112h-48.627l-34.883-97.255z"  horiz-adv-x="1024" />

    
    <glyph glyph-name="icon_8" unicode="&#58909;" d="M528.941 335.999l0.001 190.419c82.958 8.538 147.88 78.834 147.88 164.011 0 90.917-73.967 164.883-164.886 164.883-90.917 0-164.884-73.966-164.884-164.883 0-85.177 64.923-155.474 147.881-164.011v-190.419H60.688v-423.311h902.623V335.999h-434.37z m-155.23 354.43c0 76.219 62.009 138.227 138.229 138.227 76.219 0 138.228-62.008 138.228-138.227S588.159 552.202 511.94 552.202c-76.22 0-138.229 62.008-138.229 138.227z m527.592-388.273L514.379 139.457 127.456 302.156h773.847zM74.335-45.578l14.02-20.735-14.02 20.735z m20.195 8.492V289.369l-21.213 8.92 14.021 20.736-14.02-20.736 21.213-8.92L482.712 126.14 94.531-37.085l-0.001-0.001z m24.37-16.383l395.478 166.295 395.476-166.295H118.9z m810.568 18.385L546.045 126.143 929.468 287.37v-322.454zM562.757 718.299c1.249 3.47 2.915 10.376 4.998 20.721h0.833c-0.903-13.677-1.354-25.026-1.354-34.049v-97.879h33.942V768.383H552.55l-34.882-97.254c-2.291-6.455-4.514-14.093-6.664-22.907h-0.729c-1.042 7.08-3.021 14.646-5.938 22.699l-34.778 97.462H419.58v-161.291h31.029v91.215c0 13.604-0.452 27.177-1.354 40.713h0.938c2.429-11.87 4.129-19.125 5.102-21.763l40.297-110.165h27.386l39.779 111.207z"  horiz-adv-x="1024" />

    
    <glyph glyph-name="icon_9" unicode="&#58910;" d="M509.593 741.592H90.071v-715.186h419.522v340.59h229.062v34.006H509.593v340.59z m-30.054-40.287v-630.861L311.35 385.875l168.189 315.43zM298.034 410.848l-160.33 300.69h320.658l-160.328-300.69zM466.39 726.593l-3.747-7.027 3.747 7.027z m-357.876-10.254l11.611-21.775 164.593-308.688-164.593-308.688-14.974-28.082 14.974 28.083V694.564l-11.611 21.775zM469.753 38.85l-9.389 17.609h-324.66l-9.817-18.41 9.817 18.412 162.33 304.441 162.33-304.441 9.389-17.609 20.735 11.057v-0.001l-20.735-11.058zM897.822 505.585c-24.072 29.19-54.252 43.788-90.539 43.788h-68.349v-330.864h65.873c37.937 0 68.941 15.449 93.015 46.351 24.069 30.898 36.106 71.983 36.106 123.247 0.002 49.126-12.035 88.286-36.106 117.478z m-21.959-214.88c-17.063-22.928-40.799-34.389-71.209-34.389h-34.793V511.353h36.184c28.555 0 51.596-10.396 69.123-31.186 17.523-20.792 26.287-51.834 26.287-93.128 0-41.299-8.529-73.408-25.592-96.334z"  horiz-adv-x="1024" />

    
    <glyph glyph-name="icon_10" unicode="&#58911;" d="M512.062 733.785l-1.247-0.721h2.494zM818.645 66.413V366.669L558.617 216.54zM854.645 429.022l-335.601-193.76-0.001 223.186h-17.115V237.01L169.356 429.022v-424.963L512 201.885 854.645 4.06V429.022zM205.356 66.413V366.669L465.384 216.54 205.356 66.413z m613.289 0L558.617 216.54l260.027 150.129v-300.256zM205.356 66.413L465.384 216.54 205.356 366.669zM519.043 572.757H732.004v17.689H289.716v-17.689h212.212v-96.098h17.115zM745.266 458.447V763.94H287.525v-305.493h457.741z m-439.529 18.212v96.098h-16.021v17.689h16.021V745.728h421.316v-155.282h4.951v-17.689h-4.951v-96.098H305.737z"  horiz-adv-x="1024" />

    
    <glyph glyph-name="icon_11" unicode="&#58912;" d="M131.106 77.355h300.256L281.234 337.383zM431.362 690.644H131.106l150.128-260.027zM523.247 572.369v-177.98H301.888l191.829 332.255H68.753L266.579 384 68.753 41.355h424.964L300.14 376.639h223.107V256.44h432V572.369h-432z m-91.885 118.275L281.234 430.617 131.106 690.644h300.256zM131.106 77.355l150.128 260.027 150.128-260.027H131.106z m410.141 477.014h189.658v-159.98H541.247v159.98z m0-177.73h189.658V274.44H541.247V376.639z m396-102.2H747.685v279.93h189.563v-279.93z"  horiz-adv-x="1024" />

    
    <glyph glyph-name="icon_12" unicode="&#58913;" d="M759.011 452.252l0.72 1.247-0.72 1.247zM897.177 519.166c-21.3 41.034-51.719 77.825-90.409 109.351C727.88 692.795 623.196 728.195 512 728.195s-215.88-35.4-294.768-99.679c-38.691-31.526-69.109-68.317-90.409-109.351-22.204-42.774-33.462-88.25-33.462-135.165s11.258-92.392 33.462-135.166c21.3-41.034 51.718-77.825 90.409-109.352C296.12 75.205 400.804 39.805 512 39.805s215.88 35.4 294.768 99.679c38.69 31.526 69.109 68.317 90.409 109.352 22.204 42.774 33.463 88.251 33.463 135.166s-11.259 92.39-33.463 135.164zM512 73.084c-212.488 0-385.36 139.477-385.36 310.917 0 171.439 172.872 310.915 385.36 310.915S897.36 555.44 897.36 384.001c0-171.44-172.872-310.917-385.36-310.917zM585.036 641.536H438.964v-135.015l-122.271 0.357 194.256-390.367 196.527 389.227-122.44 0.357z"  horiz-adv-x="1024" />

    
    <glyph glyph-name="icon_12-copy" unicode="&#58914;" d="M264.989 315.74800000000005l-0.72-1.24700001 0.72-1.24699999zM126.823 248.83399999999995c21.3-41.034 51.719-77.825 90.409-109.351C296.12 75.20500000000004 400.804 39.80499999999995 512 39.80499999999995s215.88 35.4 294.768 99.679c38.691 31.52599999 69.109 68.317 90.409 109.351 22.204 42.774 33.462 88.25 33.462 135.165s-11.258 92.392-33.462 135.166c-21.3 41.034-51.718 77.82500001-90.409 109.352C727.88 692.795 623.196 728.1949999999999 512 728.1949999999999s-215.88-35.4-294.768-99.679c-38.69-31.526-69.109-68.317-90.409-109.352-22.204-42.774-33.463-88.251-33.463-135.166s11.259-92.38999999 33.463-135.164zM512 694.9159999999999c212.488 0 385.36-139.477 385.36-310.917 0-171.439-172.872-310.915-385.36-310.915S126.64 212.55999999999995 126.64 383.999c0 171.44 172.872 310.917 385.36 310.917zM438.964 126.46400000000006L585.036 126.46400000000006l0 135.015 122.271-0.357-194.256 390.367-196.527-389.227 122.44-0.357z"  horiz-adv-x="1024" />

    
    <glyph glyph-name="icon" unicode="&#58925;" d="M818.645 79.536V379.792L558.617 229.663zM518.59 248.123V470.695h-16.208v-220.824L169.355 442.146l0.002-424.963L512 215.008l342.645-197.825V442.146L518.59 248.123zM205.357 79.536l-0.002 300.256 260.028-150.129-260.026-150.127z m613.288 0L558.617 229.663l260.027 150.129v-300.256zM205.357 79.536l260.027 150.127-260.029 150.129zM650.433 470.695V750.817H370.537v-280.122H650.433z m-259.717 13.652l-5.754-5.751-10.129 10.134 1.644 1.643 7.713 7.709V737.166h239.205l10.116 10.112 10.13-10.134-6.859-6.855v-245.941H390.716zM643.641 737.143l-10.13 10.134-10.116-10.111-239.206-239.084-7.712-7.709-1.644-1.643 10.129-10.134 5.754 5.751 246.065 245.941z"  horiz-adv-x="1024" />

    
    <glyph glyph-name="icon1" unicode="&#58926;" d="M759.731 383.999l-0.72-1.247v2.494zM835.675 763.975v-182.464H703.884c-28.176 97.012-79.466 156.678-92.815 171.03v6.416H214.103v-3.857c-13.452-14.462-65.423-74.919-93.457-173.236-18.591-65.201-22.635-133.51-12.021-203.03 13.075-85.637 48.567-173.271 105.478-260.523v-5.643h82.231v-50.146h-80.238v-58.496h392.98v58.496h-80.238v50.146h82.23v3.082c36.977 56.691 64.901 113.545 83.52 169.906h141.087v-181.621h85.47v659.94h-85.47zM214.103 159.342c-84.474 142.137-109.708 285.133-72.881 415.517 19.592 69.365 52.374 119.663 72.881 146.333v-561.85z m104.231-96.821v50.146h188.504v-50.146H318.334z m271.105 71.776H235.733v603.03H589.44v-603.03z m21.629 22.476V718.687c20.381-26.464 52.9-76.307 72.582-145.335 26.369-92.477 33.712-237.92-72.582-416.579z m224.607 150.883h-134.29c6.617 22.984 11.688 45.873 15.161 68.619 9.545 62.518 7.229 124.056-6.854 183.236h125.982v-251.855z m70.497-188.648h-55.524V749.001h55.524v-629.993z"  horiz-adv-x="1024" />

    
    <glyph glyph-name="icon2" unicode="&#58927;" d="M759.731 383.999l-0.72-1.247v2.494zM389.392 500.31c-18.318-21.676-24.084-34.756-34.896-70.646-8.735-29.021-5-99.091 37.625-121.72l40.965-19.063c5.957-3.163 16.526-8.459 23.691-9.924-0.349-8.667 1.368-17.267 4.907-25.095-19.091-8.269-45.887-22.925-66.413-22.995-27.888-0.094-81.222 13.881-102.647 12.978-34.732-1.451-43.062-43.229-41.238-65.527 2.053-25.09 19.634-103.264 116.566-114.763 27.911-5.028 42.141-3.479 78.626 5.112 29.482 6.938 82.342 45.261 85.062 90.472l-1.803 50.938a46.189 46.189 0 0 1-2.073 13.543c11.591 3.421 22.052 10.615 29.407 20.968l0.048-0.295c16.392-12.695 42.727-27.169 53.71-46.013 14.018-24.109 28.58-77.285 40.071-95.386 18.625-29.336 58.979-15.677 77.363-2.943 20.711 14.313 79.618 68.626 41.122 158.314-9.615 26.696-18.07 38.242-43.75 65.544-20.763 22.072-79.963 54.042-120.88 28.437l-43.203-27.043a46.001 46.001 0 0 1-10.949-8.853 55.402 55.402 0 0 1-12.626 9.219 55.092 55.092 0 0 1-29.506 6.365c1.885 19.718 2.62 44.591 12.056 61.065 13.865 24.202 52.636 63.389 62.563 82.397 16.089 30.813-15.908 58.917-36.135 68.476-22.753 10.771-99.247 34.618-157.663-43.562zM127.748 275.062h0.635a266.715 266.715 0 0 0-0.635 15.464v-15.464zM158.248 750.23h289.625v-144.943a466.881 466.881 0 0 0 30.5 3.167V790.229H127.748V296.9c0.496 41.799 10.749 82.323 30.5 120.508V750.23zM865.561 417.784c-19.553 37.665-47.474 71.437-82.989 100.375-72.413 59.003-168.504 91.497-270.572 91.497a473.3 473.3 0 0 1-33.627-1.202 466.881 466.881 0 0 1-30.5-3.167V574.396A436.733 436.733 0 0 0 512 579.108c195.047 0 353.729-128.027 353.729-285.396 0-157.367-158.682-285.396-353.729-285.396-195.046 0-353.728 128.028-353.728 285.396 0 6.159 0.243 12.273 0.722 18.337V418.817c-0.181-0.346-0.374-0.687-0.554-1.033-0.065-0.125-0.127-0.251-0.192-0.376-19.751-38.185-30.004-78.709-30.5-120.508-0.013-1.062-0.023-2.124-0.023-3.188s0.011-2.126 0.023-3.188c0.062-5.175 0.274-10.33 0.635-15.464 2.558-36.469 12.633-71.852 30.058-105.419 19.552-37.666 47.473-71.437 82.988-100.375 72.412-59.003 168.503-91.497 270.571-91.497s198.159 32.494 270.571 91.497c35.516 28.938 63.437 62.709 82.989 100.375 20.381 39.263 30.715 81.007 30.715 124.07s-10.334 84.81-30.714 124.073z"  horiz-adv-x="1024" />

    
    <glyph glyph-name="icon3" unicode="&#58928;" d="M759.731 383.999l-0.72-1.247v2.494zM897.178 519.166c-21.301 41.034-51.719 77.825-90.41 109.351C727.88 692.796 623.196 728.196 512 728.196s-215.88-35.4-294.768-99.679c-38.691-31.526-69.109-68.317-90.41-109.351C104.619 476.391 93.36 430.915 93.36 384c0-46.915 11.258-92.392 33.462-135.166 21.3-41.034 51.719-77.825 90.41-109.351 78.888-64.279 183.571-99.68 294.768-99.68s215.88 35.4 294.768 99.68c38.691 31.525 69.109 68.316 90.41 109.351C919.381 291.608 930.64 337.085 930.64 384c0 46.915-11.259 92.391-33.462 135.166zM512 73.083c-212.488 0-385.36 139.477-385.36 310.917S299.512 694.917 512 694.917 897.36 555.44 897.36 384 724.488 73.083 512 73.083zM385.57 456.951H220v-146.072h165.113l-0.383-122.27L804 382.865 385.954 579.391z"  horiz-adv-x="1024" />

    
    <glyph glyph-name="icon_9-copy" unicode="&#58929;" d="M154.408 381.59299999999996L154.408-37.928999999999974l715.186 0 0 419.522-340.59 0 0 229.062-34.00599999 0L494.998 381.59299999999996l-340.59 0z m40.287-30.054l630.861 0L510.125 183.35000000000002l-315.43 168.189zM485.152 170.034l-300.69000001-160.33 0 320.658 300.69000001-160.328zM169.407 338.39l7.027-3.74699999-7.027 3.74699999z m10.254-357.876l21.775 11.611 308.688 164.593 308.688-164.593 28.082-14.974-28.083 14.974L201.436-7.875l-21.775-11.611zM857.15 341.75300000000004l-17.609-9.389 0-324.66 18.41-9.817-18.412 9.817-304.441 162.33 304.441 162.33 17.609 9.389-11.057 20.735 0.001 0 11.058-20.735zM390.415 769.822c-29.19-24.072-43.788-54.252-43.788-90.53900001l0-68.34899999 330.864 0 0 65.87299999c0 37.937-15.449 68.941-46.351 93.01500001-30.898 24.069-71.983 36.106-123.247 36.106-49.126 0.002-88.286-12.035-117.478-36.106z m214.88-21.959c22.928-17.063 34.389-40.799 34.389-71.209l0-34.79300001L384.647 641.861l0 36.184c0 28.555 10.396 51.596 31.18599999 69.123 20.792 17.523 51.834 26.287 93.12800001 26.287 41.29900001 0 73.408-8.529 96.334-25.592z"  horiz-adv-x="1024" />

    
    <glyph glyph-name="icon4" unicode="&#58930;" d="M264.989 385.246v-2.494l-0.72 1.247zM896.252 275.062h-0.635c0.36 5.134 0.573 10.289 0.635 15.464v-15.464zM716.337 323.81c-20.763 22.072-79.963 54.042-120.88 28.437l-43.203-27.043a46.001 46.001 0 0 1-10.949-8.853 55.402 55.402 0 0 1-12.626 9.219 55.092 55.092 0 0 1-29.506 6.365c1.885 19.718 2.62 44.591 12.056 61.065 13.865 24.202 52.636 63.389 62.563 82.397 16.089 30.813-15.908 58.917-36.135 68.476-22.754 10.77-99.248 34.617-157.664-43.563-18.318-21.676-24.084-34.756-34.896-70.646-8.735-29.021-5-99.091 37.625-121.72l40.965-19.063c5.957-3.163 16.526-8.459 23.691-9.924-0.349-8.667 1.368-17.267 4.907-25.095-19.091-8.269-45.887-22.925-66.413-22.995-27.888-0.094-81.222 13.881-102.647 12.978-34.732-1.451-43.062-43.229-41.238-65.527 2.053-25.09 19.634-103.264 116.566-114.763 27.911-5.028 42.141-3.479 78.626 5.112 29.482 6.938 82.342 45.261 85.062 90.472l-1.803 50.938a46.189 46.189 0 0 1-2.073 13.543c11.591 3.421 22.052 10.615 29.407 20.968l0.048-0.295c16.392-12.695 42.727-27.169 53.71-46.013 14.018-24.109 28.58-77.285 40.071-95.386 18.625-29.336 58.979-15.677 77.363-2.943 20.711 14.313 79.618 68.626 41.122 158.314-9.614 26.697-18.069 38.243-43.749 65.545zM576.127 750.23h289.625v-332.822c19.751-38.185 30.004-78.709 30.5-120.508V790.229H545.627v-181.775a466.881 466.881 0 0 0 30.5-3.167V750.23zM896.252 296.9c-0.496 41.799-10.749 82.323-30.5 120.508-0.065 0.125-0.127 0.251-0.192 0.376-0.18 0.347-0.373 0.688-0.554 1.033V312.05c0.479-6.063 0.722-12.178 0.722-18.337 0-157.367-158.682-285.396-353.728-285.396-195.047 0-353.729 128.028-353.729 285.396 0 157.368 158.682 285.396 353.729 285.396 21.894 0 43.323-1.624 64.127-4.712V605.288a466.881 466.881 0 0 1-30.5 3.167A473.3 473.3 0 0 1 512 609.657c-102.068 0-198.159-32.494-270.571-91.497-35.516-28.938-63.437-62.71-82.989-100.375-20.381-39.264-30.715-81.008-30.715-124.071s10.334-84.808 30.715-124.07c19.553-37.666 47.474-71.437 82.989-100.375 72.412-59.003 168.503-91.497 270.571-91.497s198.159 32.494 270.571 91.497c35.516 28.938 63.437 62.709 82.988 100.375 17.425 33.567 27.5 68.95 30.058 105.419 0.36 5.134 0.573 10.289 0.635 15.464 0.013 1.062 0.023 2.124 0.023 3.188s-0.01 2.124-0.023 3.185z"  horiz-adv-x="1024" />

    
    <glyph glyph-name="icon4-copy" unicode="&#58931;" d="M510.754 136.98900000000003l2.494 0-1.247-0.72zM620.93799999 768.252l1e-8-0.635c-5.134 0.36000001-10.289 0.573-15.464 0.635l15.46399999 0zM572.19 588.337c-22.072-20.763-54.04199999-79.963-28.437-120.88l27.043-43.203a46.001 46.001 0 0 1 8.853-10.949 55.402 55.402 0 0 1-9.219-12.626 55.092 55.092 0 0 1-6.365-29.506c-19.718 1.885-44.591 2.62-61.065 12.056-24.202 13.865-63.389 52.636-82.397 62.563-30.813 16.089-58.917-15.908-68.47599999-36.135-10.77-22.754-34.617-99.24799999 43.56299999-157.66399999 21.676-18.318 34.756-24.084 70.64599999-34.89600001 29.021-8.735 99.091-5 121.72000001 37.625l19.063 40.965c3.16299999 5.957 8.459 16.526 9.924 23.691 8.667-0.349 17.267 1.368 25.095 4.907 8.26899999-19.091 22.925-45.887 22.995-66.413 0.094-27.888-13.881-81.222-12.978-102.647 1.451-34.73199999 43.229-43.06200001 65.527-41.238 25.09 2.053 103.264 19.634 114.763 116.566 5.02800001 27.911 3.479 42.141-5.112 78.626-6.938 29.482-45.261 82.342-90.472 85.062l-50.93800001-1.803a46.189 46.189 0 0 1-13.54299999-2.073c-3.421 11.591-10.615 22.052-20.968 29.407l0.295 0.048c12.695 16.392 27.169 42.727 46.013 53.71 24.109 14.018 77.285 28.58 95.386 40.071 29.336 18.625 15.677 58.979 2.943 77.363-14.31299999 20.711-68.626 79.618-158.314 41.122-26.697-9.614-38.243-18.069-65.545-43.749zM145.77 448.127l0 289.625 332.822 0c38.18499999 19.751 78.709 30.004 120.50800001 30.5L105.771 768.252 105.771 417.62700001l181.775 0a466.881 466.881 0 0 0 3.167 30.49999999L145.77 448.127zM599.10000001 768.252c-41.799-0.496-82.323-10.749-120.50800001-30.5-0.125-0.065-0.251-0.127-0.376-0.192-0.347-0.18-0.688-0.37299999-1.033-0.554L583.95000001 737.006c6.063 0.479 12.17800001 0.722 18.33699999 0.722 157.36699999 0 285.396-158.682 285.396-353.728 0-195.047-128.028-353.729-285.396-353.729-157.368 0-285.396 158.682-285.396 353.729 0 21.894 1.624 43.323 4.712 64.127L290.712 448.127a466.881 466.881 0 0 1-3.167-30.5A473.3 473.3 0 0 1 286.343 384c0-102.068 32.494-198.159 91.497-270.571 28.93799999-35.516 62.71-63.437 100.375-82.989 39.264-20.381 81.008-30.71499999 124.07100001-30.715s84.808 10.334 124.06999999 30.715c37.666 19.553 71.437 47.474 100.375 82.989 59.003 72.412 91.497 168.503 91.497 270.571s-32.494 198.159-91.497 270.571c-28.93799999 35.516-62.709 63.437-100.375 82.988-33.567 17.425-68.95 27.5-105.419 30.058-5.134 0.36000001-10.289 0.573-15.464 0.635-1.062 0.013-2.124 0.023-3.188 0.023s-2.124-0.01-3.18499999-0.023z"  horiz-adv-x="1024" />

    
    <glyph glyph-name="icon5" unicode="&#58932;" d="M759.731 383.999l-0.72-1.247v2.494zM903.354 581.863c-28.034 98.317-80.005 158.774-93.457 173.236v3.856H412.931v-6.416c-13.349-14.352-64.639-74.018-92.814-171.03H188.325V763.975h-85.47v-659.94h85.47v181.62h141.087c18.619-56.361 46.543-113.216 83.52-169.906v-3.082h82.23v-50.146h-80.238v-58.496h392.979v58.496h-80.237v50.146h82.23v5.643c56.911 87.253 92.403 174.887 105.479 260.523 10.614 69.521 6.569 137.829-12.021 203.03zM173.352 119.007h-55.523V749h55.523v-629.993z m14.974 188.648V559.511h125.981c-14.083-59.181-16.398-120.719-6.854-183.236 3.473-22.746 8.544-45.636 15.161-68.619H188.326z m224.606-150.883c-106.294 178.658-98.95 324.102-72.582 416.579 19.683 69.027 52.201 118.871 72.582 145.335v-561.914z m292.734-94.252H517.162v50.146h188.504v-50.146z m82.601 71.776H434.56v603.03h353.707v-603.03z m21.629 25.045v561.85c20.507-26.67 53.289-76.968 72.881-146.333 36.827-130.384 11.594-273.379-72.881-415.517z"  horiz-adv-x="1024" />

    
    <glyph glyph-name="icon-copy" unicode="&#58933;" d="M512.001 631.731l1.247-0.72-2.494 0zM314.137 775.354c-98.317-28.034-158.774-80.00499999-173.236-93.457l-3.85599999 0L137.045 284.93099999000003l6.416 1e-8c14.352-13.349 74.018-64.639 171.03-92.814L314.491 60.32499999000004 132.025 60.325000000000045l0-85.47 659.94 1e-8 0 85.46999998-181.61999999 1e-8-1e-8 141.087c56.361 18.61899999 113.216 46.543 169.906 83.52l3.082 0 0 82.23 50.146 0 0-80.238 58.496 0 0 392.979-58.496 0 0-80.237-50.146 0 0 82.23-5.643 0c-87.25299999 56.911-174.887 92.403-260.523 105.479-69.521 10.614-137.829 6.569-203.03-12.021zM776.993 45.351999999999975l0-55.523L147-10.17100000000005l0 55.523 629.993 0z m-188.648 14.97400001L336.489 60.32600000000002l0 125.981c59.181-14.083 120.719-16.398 183.236-6.85400001 22.746 3.47300001 45.636 8.544 68.619 15.16100001L588.344 60.32600000000002z m150.883 224.606c-178.658-106.294-324.102-98.95-416.579-72.58200002-69.027 19.683-118.871 52.201-145.335 72.58200001l561.914 1e-8z m94.252 292.73399999L833.48 389.162l-50.146 0 0 188.504 50.146 0z m-71.776 82.601L761.70399999 306.55999999999995l-603.02999998 0-1e-8 353.707 603.03 0z m-25.045 21.629l-561.85 0c26.67 20.507 76.968 53.289 146.333 72.881 130.384 36.827 273.379 11.59400001 415.517-72.881z"  horiz-adv-x="1024" />

    
    <glyph glyph-name="icon6" unicode="&#58934;" d="M759.731 383.999l-0.72-1.247v2.494zM510.329 712.978L87.513 384.663l426.155-329.64 422.819 328.316-426.158 329.639z m377.184-329.684l-209.53-162.699L733.3 502.579l154.213-119.285zM510.364 675.022l196.392-151.911-51.242-261.209-136.355 365.132 0.341 0.966-12 34.5-12.201-33.04-1.799-0.96 0.712-1.983-132.774-359.535L311.66 520.73l198.704 154.292zM285.13 500.129l53.283-271.616-201.927 156.195L285.13 500.129z m228.503-407.151L370.054 204.039l136.651 387.663 138.042-384.684-0.063-0.322 0.192-0.038 3.303-9.205-134.546-104.475z"  horiz-adv-x="1024" />

    


  </font>
</defs>
</svg>
